<?xml version="1.0" encoding="UTF-8"?>
<svg id="Capa_2" data-name="Capa 2" xmlns="http://www.w3.org/2000/svg" viewBox="0 0 153.91 164.62">
  <defs>
    <style>
      .cls-1 {
        fill: #fff;
      }

      .cls-2 {
        fill: #82368c;
      }

      .cls-3 {
        fill: #96759f;
      }
    </style>
  </defs>
  <g>
    <g>
      <rect class="cls-2" y="23.14" width="117.32" height="118.78" rx="12" ry="12"/>
      <path class="cls-2" d="M49.91,23.85h-11.08S40.24,3.17,60.96,0l45.78,.04s16.7-.42,14.48,24.96h-9.86s1.61-14.29-6.5-13.83l-41.27,.23s-9.94-.99-13.68,12.46Z"/>
      <path class="cls-2" d="M49.91,140.78h-.38s-10.7,0-10.7,0c0,0,1.41,20.68,22.13,23.85l45.78-.04s16.7,.42,14.48-24.96h-9.86s1.61,14.29-6.5,13.83l-41.27-.23s-9.94,.99-13.68-12.46Z"/>
      <path class="cls-2" d="M110.85,24.5h10.58v4.08s30.47-18.25,32.42-.25v22.53l.06,84.84s1.76,19.18-32.73,.4l.04,4.04-9.84,.13s5.95-3.54,5.95-9.9V35.88s.49-7.51-6.48-11.38Z"/>
    </g>
    <rect class="cls-3" x="8.56" y="32.48" width="103.49" height="99.67" rx="13.15" ry="13.15"/>
  </g>
  <path class="cls-1" d="M85.49,75.61c0-2.17,.63-4.03,1.9-5.58,1.27-1.55,2.79-2.33,4.57-2.33,1.78,0,3.3,.77,4.58,2.32,1.27,1.55,1.91,3.4,1.91,5.58,0,2.17-.63,4.03-1.9,5.58-1.27,1.55-2.79,2.33-4.57,2.33-1.78,0-3.3-.77-4.58-2.32-1.27-1.55-1.91-3.4-1.91-5.58Zm-58.01,23.16h18.54s0-23.17,0-23.17c0-2.14,.63-3.98,1.88-5.5,1.25-1.53,2.75-2.29,4.51-2.29h21.91c1.76,0,3.26,.76,4.51,2.27,1.25,1.52,1.88,3.37,1.88,5.57,0,1.6-.27,2.98-.8,4.15-.53,1.17-1.57,2.54-3.1,4.13-2.9,3.03-5.32,6.35-7.27,9.96-1.95,3.61-2.99,7.54-3.1,11.8h-5.32c0-3.68,.74-7.47,2.22-11.37,1.48-3.9,3.46-7.65,5.94-11.26h-16.23s0,14.4,0,14.4c0,2.14-.63,3.98-1.88,5.5-1.25,1.53-2.75,2.29-4.51,2.29H27.48v-6.5Zm0-32.48c0-5.99,1.67-11.02,5.01-15.1,3.34-4.08,7.47-6.12,12.37-6.12,4.02,0,7.73,1.79,11.13,5.36,3.4,3.57,5.37,8.28,5.9,14.13h-5.41c-.3-3.9-1.61-7.02-3.95-9.36-2.34-2.35-4.89-3.52-7.67-3.52-3.43,0-6.3,1.39-8.6,4.17-2.31,2.78-3.46,6.26-3.46,10.45,0,3.39,.96,6.53,2.88,9.42,1.92,2.89,4.48,4.47,7.67,4.76v6.6c-4.73-.58-8.56-2.96-11.49-7.14-2.93-4.19-4.39-8.73-4.39-13.64Z"/>
</svg>